<?xml version="1.0" standalone="no"?><!DOCTYPE svg PUBLIC "-//W3C//DTD SVG 1.1//EN" "http://www.w3.org/Graphics/SVG/1.1/DTD/svg11.dtd"><svg t="1499135487712" class="icon" style="" viewBox="0 0 1024 1024" version="1.1" xmlns="http://www.w3.org/2000/svg" p-id="1002" xmlns:xlink="http://www.w3.org/1999/xlink" width="200" height="200"><defs><style type="text/css"></style></defs><path d="M471.116 127.676c189.375 0 343.441 154.061 343.441 343.427 0 75.634-24.115 147.366-69.739 207.446l-28.647 37.72-37.724 28.618c-60.057 45.56-131.751 69.641-207.332 69.641-91.719 0-177.955-35.711-242.818-100.554-64.887-64.867-100.622-151.119-100.622-242.869 0.001-189.368 154.068-343.429 343.441-343.429m0-63.177C246.547 64.499 64.5 246.542 64.5 471.103c0 112.299 45.526 213.965 119.132 287.549 73.58 73.558 175.219 119.052 287.484 119.052 92.239 0 177.291-30.731 245.515-82.484l148.016 147.999c10.042 10.059 23.926 16.282 39.264 16.282 15.336 0 29.22-6.223 39.264-16.282v-0.002c10.083-10.03 16.325-23.918 16.325-39.262 0-15.342-6.24-29.23-16.328-39.262L795.131 716.757c51.827-68.246 82.603-153.349 82.603-245.654 0-224.561-182.05-406.604-406.618-406.604z" p-id="1003" fill="#cdcdcd"></path></svg>