<?xml version="1.0" standalone="no"?><!DOCTYPE svg PUBLIC "-//W3C//DTD SVG 1.1//EN" "http://www.w3.org/Graphics/SVG/1.1/DTD/svg11.dtd"><svg t="1499155238218" class="icon" style="" viewBox="0 0 1024 1024" version="1.1" xmlns="http://www.w3.org/2000/svg" p-id="3333" xmlns:xlink="http://www.w3.org/1999/xlink" width="200" height="200"><defs><style type="text/css"></style></defs><path d="M815.663044 781.930779c-44.225247-92.710518-362.246301-85.757153-241.070474-226.907916 39.671535-46.6249 81.499176-109.61042 81.499176-177.099511 0-121.955586-81.158415-221.082234-180.976818-221.082234-99.722212 0-181.076078 99.126648-181.076078 221.082234 0 67.490114 25.568329 112.74276 76.650751 175.924755C454.934307 678.199253 179.477674 687.307701 137.846508 776.006859c-12.341073 26.348088-14.499226 46.774303-14.304797 70.328765 0 3.038196-0.289596 6.170536 1.226944 8.667404 1.517563 2.451842 3.869121 3.968381 6.418176 3.968381l686.876889 0c2.449795 0 4.848425-1.517563 6.317892-3.968381 1.517563-2.496867 1.224898-5.582135 1.224898-8.667404C826.098721 819.986513 822.569338 796.378839 815.663044 781.930779z" p-id="3334" fill="#ffffff"></path><path d="M937.190889 491.418242l-91.044576 0 0-91.033319c0-12.592806-10.223852-22.772656-22.760376-22.772656-12.570293 0-22.760376 10.17985-22.760376 22.772656l0 91.033319-91.045599 0c-12.580526 0-22.772656 10.17985-22.772656 22.782889 0 12.536524 10.19213 22.762423 22.772656 22.762423l91.045599 0 0 91.044576c0 12.558014 10.190083 22.738887 22.760376 22.738887 12.536524 0 22.760376-10.17985 22.760376-22.738887l0-91.044576 91.044576 0c12.580526 0 22.760376-10.224876 22.760376-22.762423C959.952288 501.599116 949.771415 491.418242 937.190889 491.418242z" p-id="3335" fill="#ffffff"></path></svg>