<?xml version="1.0" standalone="no"?><!DOCTYPE svg PUBLIC "-//W3C//DTD SVG 1.1//EN" "http://www.w3.org/Graphics/SVG/1.1/DTD/svg11.dtd"><svg t="1499063629890" class="icon" style="" viewBox="0 0 1024 1024" version="1.1" xmlns="http://www.w3.org/2000/svg" p-id="35070" xmlns:xlink="http://www.w3.org/1999/xlink" width="128" height="128"><defs><style type="text/css"></style></defs><path d="M510.207679 880.981702c-77.774341 0-152.97302-19.946284-218.119763-57.780984l-170.232103 48.651047 39.120996-172.343183c-37.378306-57.237609-57.081043-122.208343-57.081043-188.523701 0-204.025767 182.272323-370.013195 406.312936-370.013195 224.028333 0 406.28019 165.987429 406.28019 370.013195C916.487869 714.994274 734.236012 880.981702 510.207679 880.981702L510.207679 880.981702zM294.001499 780.616854l8.53949 5.230118c61.34516 37.606503 133.160789 57.480132 207.66669 57.480132 203.683982 0 369.401258-149.078317 369.401258-332.342224 0-183.260837-165.721369-332.360643-369.401258-332.360643-203.699332 0-369.438097 149.098783-369.438097 332.360643 0 61.694107 19.322068 122.216529 55.881728 175.055968l5.690606 8.239662-27.323299 120.338762L294.001499 780.616854 294.001499 780.616854z" p-id="35071"></path></svg>