<?xml version="1.0" standalone="no"?><!DOCTYPE svg PUBLIC "-//W3C//DTD SVG 1.1//EN" "http://www.w3.org/Graphics/SVG/1.1/DTD/svg11.dtd"><svg t="1499060103873" class="icon" style="" viewBox="0 0 1190 1024" version="1.1" xmlns="http://www.w3.org/2000/svg" p-id="23064" xmlns:xlink="http://www.w3.org/1999/xlink" width="148.75" height="128"><defs><style type="text/css"></style></defs><path d="M847.595243 1016.499892H78.986378C32.491243 1016.499892 0 986.139676 0 942.633514v-24.160865c0-42.039351 29.668324-83.13773 72.095135-99.90919l184.873514-89.004973c36.061405-12.177297 64.484324-27.45427 75.167135-40.185081 13.201297-16.245622 17.463351-61.993514 3.182702-91.96627-0.83027-1.383784-2.352432-3.487135-4.206702-6.310054a323.251892 323.251892 0 0 1-10.212325-15.830486c-27.814054-45.720216-93.322378-153.157189-93.322378-243.296865 0-174.135351 105.167568-315.834811 234.440649-315.834811 129.439135 0 234.772757 141.699459 234.772756 315.834811 0 80.923676-55.572757 171.312432-88.755891 225.335351-14.944865 24.354595-24.631351 40.185081-27.814054 51.615135-11.153297 40.683243-9.741838 68.691027 4.096 83.054703 13.533405 14.52973 41.209081 29.114811 60.914162 37.306811l212.327783 89.198702c40.434162 15.830486 69.078486 57.067243 69.078487 99.992217v24.160865c0 43.506162-32.546595 73.866378-79.04173 73.866378" fill="#2c2c2c" p-id="23065"></path><path d="M1148.73427 779.07027h-246.036756c-13.228973 0-23.939459-11.596108-23.93946-25.821405 0-14.252973 10.710486-25.821405 23.93946-25.821406h246.036756c13.228973 0 23.939459 11.568432 23.93946 25.821406 0 14.225297-10.710486 25.79373-23.93946 25.79373M1148.73427 587.416216h-313.842162c-13.228973 0-23.939459-11.540757-23.939459-25.79373 0-14.252973 10.710486-25.821405 23.911783-25.821405h313.869838c13.228973 0 23.939459 11.568432 23.93946 25.821405 0 14.252973-10.710486 25.79373-23.93946 25.79373M1148.73427 366.78573H767.059027c-13.201297 0-23.911784-11.568432-23.911784-25.821406 0-14.252973 10.710486-25.821405 23.911784-25.821405h381.675243c13.228973 0 23.939459 11.568432 23.93946 25.821405 0 14.252973-10.710486 25.821405-23.93946 25.821406" fill="#2c2c2c" p-id="23066"></path></svg>