<?xml version="1.0" standalone="no"?><!DOCTYPE svg PUBLIC "-//W3C//DTD SVG 1.1//EN" "http://www.w3.org/Graphics/SVG/1.1/DTD/svg11.dtd">
<svg t="1499059995860" class="icon" style="" viewBox="0 0 1190 1024" version="1.1" xmlns="http://www.w3.org/2000/svg" p-id="22193" xmlns:xlink="http://www.w3.org/1999/xlink" width="148.75" height="128">
	<defs>
		<style type="text/css"></style>
	</defs>
	<path d="M462.01773 67.750054c-102.898162 0-186.589405 118.507243-186.589406 264.219676 0 74.724324 62.187243 176.736865 85.600865 215.150702 3.26573 5.479784 6.310054 9.907892 8.800865 13.616433 3.597838 5.286054 6.310054 9.631135 7.859892 12.869189 22.638703 47.131676 18.044541 115.822703-9.907892 150.168216-23.136865 27.592649-68.829405 45.692541-94.01427 54.022919l-183.68346 88.562162c-25.129514 10.018595-42.233081 31.605622-42.233081 52.113298v24.160865c0 20.092541 21.753081 22.251243 31.135135 22.251243h768.608865c9.382054 0 31.190486-2.158703 31.190487-22.251243v-24.160865c0-20.922811-16.384-43.20173-38.08173-51.670487l-212.742919-89.337081c-15.636757-6.531459-54.493405-24.299243-77.076757-48.598486-27.869405-28.782703-33.432216-73.008432-16.522378-134.808217 5.286054-18.736432 15.885838-36.144432 33.542919-64.844108 30.443243-49.622486 81.034378-131.929946 81.034378-197.24454 0-145.712432-83.884973-264.219676-186.921513-264.219676m385.577513 948.722162H78.986378C32.491243 1016.499892 0 986.167351 0 942.633514v-24.160865c0-42.039351 29.668324-83.13773 72.095135-99.90919l184.873514-89.004973c36.061405-12.177297 64.484324-27.45427 75.167135-40.185081 13.201297-16.245622 17.463351-61.993514 3.182702-91.96627-0.83027-1.383784-2.352432-3.487135-4.206702-6.310054a323.251892 323.251892 0 0 1-10.212325-15.830486c-27.814054-45.720216-93.322378-153.157189-93.322378-243.296865 0-174.135351 105.167568-315.834811 234.440649-315.834811 129.439135 0 234.772757 141.699459 234.772756 315.834811 0 80.923676-55.572757 171.312432-88.755891 225.335351-14.944865 24.354595-24.631351 40.185081-27.814054 51.615135-11.153297 40.683243-9.741838 68.691027 4.096 83.054703 13.533405 14.52973 41.209081 29.114811 60.914162 37.306811l212.327783 89.198702c40.434162 15.830486 69.078486 57.067243 69.078487 99.992217v24.160865c0 43.506162-32.546595 73.866378-79.04173 73.866378" fill="#2c2c2c" p-id="22194"></path>
	<path d="M1148.73427 779.07027h-246.036756c-13.228973 0-23.939459-11.596108-23.93946-25.821405 0-14.252973 10.710486-25.821405 23.93946-25.821406h246.036756c13.228973 0 23.939459 11.568432 23.93946 25.821406 0 14.225297-10.710486 25.79373-23.93946 25.79373M1148.73427 587.416216h-313.842162c-13.228973 0-23.939459-11.540757-23.939459-25.79373 0-14.252973 10.710486-25.821405 23.911783-25.821405h313.869838c13.228973 0 23.939459 11.568432 23.93946 25.821405 0 14.252973-10.710486 25.79373-23.93946 25.79373M1148.73427 366.78573H767.059027c-13.201297 0-23.911784-11.568432-23.911784-25.821406 0-14.252973 10.710486-25.821405 23.911784-25.821405h381.675243c13.228973 0 23.939459 11.568432 23.93946 25.821405 0 14.252973-10.710486 25.821405-23.93946 25.821406" fill="#2c2c2c" p-id="22195"></path>
</svg>