<?xml version="1.0" standalone="no"?><!DOCTYPE svg PUBLIC "-//W3C//DTD SVG 1.1//EN" "http://www.w3.org/Graphics/SVG/1.1/DTD/svg11.dtd"><svg t="1499059497640" class="icon" style="" viewBox="0 0 1024 1024" version="1.1" xmlns="http://www.w3.org/2000/svg" p-id="16697" xmlns:xlink="http://www.w3.org/1999/xlink" width="200" height="200"><defs><style type="text/css"></style></defs><path d="M874.046407 149.95134c-199.93512-199.93512-524.157694-199.93512-724.092814 0s-199.93512 524.157694 0 724.092814 524.157694 199.93512 724.092814 0S1073.981527 349.88646 874.046407 149.95134zM184.64144 839.356307C3.842236 658.557102 3.842236 365.438392 184.64144 184.639188s473.917915-180.799204 654.717119 0 180.799204 473.917915 0 654.781119S365.440645 1020.155511 184.64144 839.356307zM437.376328 432.702096l-187.007177 345.662479 339.070508-193.599148 193.599148-339.070508L437.376328 432.702096zM516.671979 545.5336C498.112061 545.5336 483.136127 530.557666 483.136127 511.997747c0-18.495919 15.039934-33.535852 33.535852-33.535852 18.495919 0 33.535852 15.039934 33.535852 33.535852C550.207832 530.557666 535.167898 545.5336 516.671979 545.5336z" p-id="16698" fill="#2cb321"></path></svg>