<?xml version="1.0" standalone="no"?><!DOCTYPE svg PUBLIC "-//W3C//DTD SVG 1.1//EN" "http://www.w3.org/Graphics/SVG/1.1/DTD/svg11.dtd"><svg t="1499061699347" class="icon" style="" viewBox="0 0 1024 1024" version="1.1" xmlns="http://www.w3.org/2000/svg" p-id="29665" xmlns:xlink="http://www.w3.org/1999/xlink" width="128" height="128"><defs><style type="text/css"></style></defs><path d="M997.053 881.448v115.605H26.947V881.448l323.369-207.764v-80.842c-19.941 0-38.373-20.076-55.35-60.227-17.004-40.152-25.492-73.97-25.492-101.457V269.474c0-66.803 23.713-123.958 71.168-171.386C388.069 50.661 445.17 26.948 512 26.948c66.83 0 123.958 23.713 171.385 71.14 47.428 47.428 71.141 104.583 71.141 171.386v161.684c0 27.486-8.461 61.305-25.465 101.457-16.977 40.151-35.409 60.227-55.377 60.227v80.842l323.369 207.764" p-id="29666" fill="#2c2c2c"></path></svg>