<?xml version="1.0" standalone="no"?><!DOCTYPE svg PUBLIC "-//W3C//DTD SVG 1.1//EN" "http://www.w3.org/Graphics/SVG/1.1/DTD/svg11.dtd"><svg t="1499061657345" class="icon" style="" viewBox="0 0 1024 1024" version="1.1" xmlns="http://www.w3.org/2000/svg" p-id="26799" xmlns:xlink="http://www.w3.org/1999/xlink" width="128" height="128"><defs><style type="text/css"></style></defs><path d="M985.433 1009.38h-944.487c-21.92 0-35.179-17.151-38.224-33.088l-0.394-2.060v-112.844c0-12.795 5.706-22.935 16.501-29.325 37.199-22.013 226.287-134.207 296.071-181.385 35.899-24.272 48.355-54.983 51.919-79.328-61.019-59.558-97.151-152.901-97.151-252.325 0-83.35 24.809-161.949 69.851-221.315 22.351-29.46 48.519-52.667 77.778-68.979 30.843-17.194 63.692-25.911 97.635-25.911 33.932 0 66.779 8.719 97.621 25.911 29.258 16.31 55.425 39.519 77.777 68.979 45.043 59.367 69.849 137.966 69.849 221.315 0 99.189-36.007 192.411-96.806 251.982 3.459 24.473 15.739 55.366 51.385 79.734 68.98 47.158 255.977 159.362 292.762 181.374 10.695 6.403 16.347 16.524 16.347 29.271v112.82l-0.386 2.036c-3.011 15.959-16.203 33.136-38.048 33.136v0zM46.645 965.065h932.905v-98.036c-46.785-28.028-222.607-133.755-289.804-179.696-58.498-39.993-69.97-94.721-71.598-123.786l-0.596-10.63 7.925-7.109c56.597-50.759 90.385-135.534 90.385-226.775 0-73.735-21.605-142.82-60.838-194.529-37.849-49.887-87.603-77.36-140.090-77.36-52.502 0-102.26 27.473-140.11 77.36-39.232 51.709-60.838 120.794-60.838 194.529 0 91.475 33.921 176.369 90.737 227.097l7.998 7.139-0.635 10.701c-1.718 28.987-13.404 83.568-72.365 123.428-67.982 45.961-245.81 151.702-293.076 179.705v97.964h-0.002z" p-id="26800"></path></svg>