<?xml version="1.0" standalone="no"?><!DOCTYPE svg PUBLIC "-//W3C//DTD SVG 1.1//EN" "http://www.w3.org/Graphics/SVG/1.1/DTD/svg11.dtd"><svg t="1499233258711" class="icon" style="" viewBox="0 0 1026 1024" version="1.1" xmlns="http://www.w3.org/2000/svg" p-id="10755" xmlns:xlink="http://www.w3.org/1999/xlink" width="200.390625" height="200"><defs><style type="text/css"></style></defs><path d="M302.32576 548.980736c-34.029568 16.986112-243.5584 104.419328-98.615296 244.85888 78.6944 78.563328 210.5344 28.911616 242.358272-46.850048 4.253696-53.082112 4.173824-438.757376 4.173824-491.841536 0-53.082112 157.874176-336.760832 445.884416-175.644672 0 0 324.067328 188.993536-51.433472 493.963264 0 0-128.38912 10.340352-98.6112-97.947648-4.253696-31.850496 156.42624-105.711616 135.155712-207.632384-34.029568-121.028608-231.8336-156.362752-283.078656-4.247552v481.224704c2.048 67.584-131.75808 289.380352-408.786944 195.885056 0 0-184.936448-78.880768-174.696448-277.536768 8.192-90.112 93.396992-200.423424 189.032448-236.65664 106.346496-29.724672 145.408 75.712512 98.617344 122.425344z" fill="#b199e4" p-id="10756"></path></svg>