<?xml version="1.0" standalone="no"?><!DOCTYPE svg PUBLIC "-//W3C//DTD SVG 1.1//EN" "http://www.w3.org/Graphics/SVG/1.1/DTD/svg11.dtd"><svg t="1499233108631" class="icon" style="" viewBox="0 0 1024 1024" version="1.1" xmlns="http://www.w3.org/2000/svg" p-id="3109" xmlns:xlink="http://www.w3.org/1999/xlink" width="200" height="200"><defs><style type="text/css"></style></defs><path d="M689.979042 194.297195C553.099558 57.418734 331.17412 57.418734 194.29566 194.298218c-136.87846 136.87846-136.87846 358.801852 0 495.681336 124.758422 124.757398 320.154647 135.782499 457.426057 33.120328l203.079208 203.078185c8.243755 8.243755 21.732977 8.243755 29.976732 0l41.400922-41.400922c8.244778-8.244778 8.244778-21.731954 0-29.976732L723.100394 651.721205C825.761542 514.451842 814.737464 319.055616 689.979042 194.297195zM640.41009 640.410602c-109.502973 109.502973-287.042505 109.502973-396.546501-0.001023-109.502973-109.50195-109.502973-287.041482 0-396.544455 109.502973-109.502973 287.044552-109.503996 396.547525-0.001023S749.914086 530.908652 640.41009 640.410602z" p-id="3110" fill="#0da9ee"></path></svg>