<?xml version="1.0" standalone="no"?><!DOCTYPE svg PUBLIC "-//W3C//DTD SVG 1.1//EN" "http://www.w3.org/Graphics/SVG/1.1/DTD/svg11.dtd"><svg t="1499236922549" class="icon" style="" viewBox="0 0 1024 1024" version="1.1" xmlns="http://www.w3.org/2000/svg" p-id="3889" xmlns:xlink="http://www.w3.org/1999/xlink" width="200" height="200"><defs><style type="text/css"></style></defs><path d="M512 512m-499 0a499 499 0 1 0 998 0 499 499 0 1 0-998 0Z" fill="#fff" p-id="3890"></path><path d="M512.7 45c-17.8 0-35.4 1.1-52.6 3.1-42.3 4.8-82.8 15.4-120.8 30.7 0 0 313.9 310.7 322.3 322.2V69.7c-9.4-3.2-18.9-6-28.6-8.7-38.3-10.3-78.6-16-120.3-16z" fill="#e67359" p-id="3891"></path><path d="M840.6 180c-12.6-12.6-25.8-24.2-39.4-35-33.3-26.5-69.4-47.7-107.1-63.8 0 0 2.3 441.6 0 455.7l234.4-234.3c-4.4-8.9-9.1-17.7-14.1-26.3-19.9-34.4-44.3-66.9-73.8-96.3z" fill="#5659a6" p-id="3892"></path><path d="M943.5 339.4S632.9 653.3 621.3 661.7h331.3c3.2-9.3 6.1-18.9 8.7-28.5 10.3-38.4 16-78.7 16-120.3 0-17.8-1.1-35.3-3.1-52.6-4.8-42.4-15.3-82.9-30.7-120.9z" fill="#5c95d0" p-id="3893"></path><path d="M482.7 696.6l234.4 234.3c8.9-4.4 17.6-9.1 26.3-14.1 34.4-19.8 66.9-44.3 96.4-73.8 12.5-12.5 24.1-25.8 35-39.4 26.4-33.3 47.7-69.4 63.7-107.1 0 0-441.6 2.4-455.8 0.1z" fill="#71c8d6" p-id="3894"></path><path d="M362.5 623v331.3c9.4 3.2 18.9 6.1 28.5 8.7 38.4 10.3 78.7 16 120.3 16 17.8 0 35.3-1.1 52.5-3.1 42.3-4.8 82.8-15.4 120.8-30.7 0.2 0-313.8-310.6-322.1-322.2z" fill="#78bf5a" p-id="3895"></path><path d="M329.5 484.8L95.2 719.1c4.4 9 9.2 17.8 14.1 26.3 19.8 34.5 44.3 67 73.8 96.4 12.6 12.6 25.8 24.2 39.4 35 33.4 26.5 69.3 47.7 107.1 63.7 0 0-2.4-441.6-0.1-455.7z" fill="#b3d462" p-id="3896"></path><path d="M62.7 391.1c-10.3 38.4-16 78.7-16 120.3 0 17.8 1.1 35.4 3.2 52.6 4.8 42.3 15.3 82.8 30.7 120.8 0 0 310.6-313.9 322.2-322.2H71.4c-3.3 9.3-6.1 18.9-8.7 28.5z" fill="#e8d55d" p-id="3897"></path><path d="M278.4 109.1c-34.5 19.8-67 44.3-96.4 73.7-12.7 12.6-24.2 25.8-35 39.4-26.5 33.3-47.7 69.4-63.8 107.1 0 0 441.7-2.3 455.8-0.1L304.7 95c-8.9 4.4-17.7 9.1-26.3 14.1z" fill="#e9ae5b" p-id="3898"></path></svg>