<?xml version="1.0" standalone="no"?><!DOCTYPE svg PUBLIC "-//W3C//DTD SVG 1.1//EN" "http://www.w3.org/Graphics/SVG/1.1/DTD/svg11.dtd"><svg t="1499233170500" class="icon" style="" viewBox="0 0 1024 1024" version="1.1" xmlns="http://www.w3.org/2000/svg" p-id="4045" xmlns:xlink="http://www.w3.org/1999/xlink" width="200" height="200"><defs><style type="text/css"></style></defs><path d="M-4348.109 512c0 320.087 259.482 579.569 579.569 579.569s579.569-259.482 579.569-579.569c0-320.087-259.482-579.569-579.569-579.569-320.087 0-579.569 259.482-579.569 579.569z" fill="#10aeff" p-id="4046"></path><path d="M-1952.479 771.71l-193.846-193.847-90.741 31.083-60.585 17.31-69.239-17.31-54.815-25.964h-69.239l-43.276 31.734-63.471 8.655-40.39-11.539-60.585-25.964-66.738-8.003v217.132l296.532 296.531c225.957-0.654 421.378-130.652 516.39-319.817z" fill="#10aeff" p-id="4047"></path><path d="M347.060 591.809c95.44 0 88.437-61.106 183.875-61.106 95.505 0 95.505 61.106 191.011 61.106l-6.475-17.527-54.654-162.237c-24.626-73.094-94.811-117.797-168.27-113.513l-71.011-210.797c19.039-9.834 28.672-32.22 21.617-53.155l-3.143-9.333c-7.785-23.104-32.825-35.522-55.927-27.743l-90.819 30.596c-23.106 7.785-35.523 32.825-27.744 55.927l3.143 9.334c7.051 20.933 28.265 32.927 49.375 29.237l71.011 210.797c-61.078 41.036-89.908 119.098-65.284 192.192l19.412 57.625 3.882 8.591z" fill="#10aeff" p-id="4048"></path><path d="M721.95 982.523c-53.237 0-81.077-17.812-105.632-33.518-23.141-14.801-43.127-27.594-85.39-27.594-42.211 0-62.175 12.78-85.3 27.581-24.538 15.716-52.357 33.531-105.578 33.531-53.237 0-81.060-17.812-105.597-33.518-23.123-14.811-43.107-27.594-85.338-27.594-10.387 0-18.791-8.414-18.791-18.791s8.404-18.793 18.791-18.793c53.241 0 81.062 17.812 105.597 33.518 23.124 14.811 43.108 27.594 85.338 27.594 42.228 0 62.194-12.78 85.318-27.594 24.539-15.708 52.339-33.518 105.559-33.518 53.259 0 81.097 17.812 105.652 33.518 23.14 14.811 43.126 27.594 85.373 27.594 42.247 0 62.235-12.794 85.374-27.594 24.554-15.708 52.378-33.518 105.632-33.518 10.387 0 18.793 8.414 18.793 18.793s-8.406 18.791-18.793 18.791c-42.246 0-62.233 12.794-85.373 27.594-24.559 15.709-52.379 33.52-105.635 33.52zM721.95 841.974c-53.237 0-81.077-17.801-105.632-33.513-23.141-14.811-43.127-27.594-85.39-27.594-42.211 0-62.175 12.78-85.3 27.581-24.538 15.708-52.357 33.518-105.578 33.518-53.237 0-81.060-17.801-105.597-33.518-23.123-14.801-43.107-27.581-85.338-27.581-10.387 0-18.791-8.414-18.791-18.791s8.404-18.791 18.791-18.791c53.241 0 81.062 17.801 105.597 33.517 23.124 14.801 43.108 27.581 85.338 27.581 42.228 0 62.194-12.78 85.318-27.594 24.539-15.708 52.339-33.511 105.559-33.511 53.259 0 81.097 17.801 105.652 33.517 23.14 14.801 43.126 27.581 85.373 27.581 42.247 0 62.235-12.78 85.374-27.594 24.554-15.708 52.378-33.511 105.632-33.511 10.387 0 18.793 8.414 18.793 18.791s-8.406 18.791-18.793 18.791c-42.246 0-62.233 12.78-85.373 27.594-24.559 15.714-52.379 33.515-105.635 33.515zM721.95 701.427c-53.237 0-81.077-17.801-105.632-33.513-23.141-14.809-43.127-27.594-85.39-27.594-42.211 0-62.175 12.783-85.3 27.581-24.538 15.709-52.357 33.518-105.578 33.518-53.237 0-81.060-17.801-105.597-33.518-23.123-14.8-43.107-27.581-85.338-27.581-10.387 0-18.791-8.414-18.791-18.791s8.404-18.791 18.791-18.791c53.241 0 81.062 17.801 105.597 33.517 23.124 14.801 43.108 27.581 85.338 27.581 42.228 0 62.194-12.78 85.318-27.594 24.539-15.708 52.339-33.511 105.559-33.511 53.259 0 81.097 17.801 105.652 33.517 23.14 14.801 43.126 27.581 85.373 27.581 42.247 0 62.235-12.78 85.374-27.594 24.554-15.708 52.378-33.511 105.632-33.511 10.387 0 18.793 8.414 18.793 18.791s-8.406 18.791-18.793 18.791c-42.246 0-62.233 12.783-85.373 27.594-24.559 15.714-52.379 33.515-105.635 33.515z" fill="#10aeff" p-id="4049"></path><path d="M-472.713 517.493c-3.156-0.002-5.841-2.015-6.846-4.827-1.318-3.835 0.679-7.974 4.465-9.285l189.891-65.99c3.786-1.318 7.911 0.679 9.244 4.471 1.303 3.786-0.695 7.924-4.481 9.236l-189.891 65.99c-0.706 0.256-1.522 0.404-2.372 0.404-0.002 0-0.005 0-0.007 0z" fill="#10aeff" p-id="4050"></path><path d="M-1137.681 419.506c-0.006 0-0.017 0-0.023 0-4.414 0-8.366-1.98-11.014-5.099-11.981-14.097-30.17-21.951-48.557-20.767-8.193 0.397-14.87-5.644-15.34-13.652-0.467-8.003 5.644-14.871 13.637-15.34 27.671-1.568 54.538 9.965 72.356 30.94 5.203 6.11 4.452 15.268-1.658 20.464-2.506 2.147-5.786 3.453-9.372 3.453-0.007 0-0.019 0-0.029 0z" fill="#10aeff" p-id="4051"></path></svg>