<?xml version="1.0" standalone="no"?><!DOCTYPE svg PUBLIC "-//W3C//DTD SVG 1.1//EN" "http://www.w3.org/Graphics/SVG/1.1/DTD/svg11.dtd"><svg t="1499233137767" class="icon" style="" viewBox="0 0 1024 1024" version="1.1" xmlns="http://www.w3.org/2000/svg" p-id="3513" xmlns:xlink="http://www.w3.org/1999/xlink" width="200" height="200"><defs><style type="text/css"></style></defs><path d="M589.77 502.809c-30.401 0-53.025-25.452-53.025-53.025 0-17.675 9.899-35.349 25.452-45.248-12.725-4.949-27.573-7.776-43.126-7.776-57.974 0-108.878 48.076-108.878 108.878 0 57.974 48.076 108.878 108.878 108.878 57.974 0 108.878-48.076 108.878-108.878v-12.725c-12.725 4.949-25.452 9.899-38.177 9.899zM859.839 449.785c-22.624-27.573-48.076-53.025-75.647-78.476-83.425-73.527-171.797-115.947-265.121-115.947s-181.696 43.126-265.121 115.947c-27.573 25.452-53.025 50.195-75.647 78.476-12.725 14.848-22.624 27.573-27.573 35.349l-13.434 17.675 12.725 17.675c4.949 7.776 14.848 20.502 27.573 35.349 22.624 27.573 48.076 53.025 75.647 78.476 83.425 73.527 171.797 115.947 265.121 115.947s181.696-43.126 265.121-115.947c27.573-25.452 53.025-50.195 75.647-78.476 12.725-14.848 22.624-27.573 27.573-35.349l12.725-17.675-12.725-17.675c-4.242-7.776-14.141-20.502-26.866-35.349zM827.317 515.535c-2.829-2.829-4.949-7.776-7.776-9.899-2.829 4.949-7.776 7.776-9.899 12.725-20.502 25.452-43.126 48.076-67.871 70.7-70.7 62.922-146.348 101.1-221.996 101.1s-149.174-38.177-221.996-101.1c-25.452-22.624-48.076-48.076-67.871-70.7-4.949-4.949-7.776-7.776-9.899-12.725-2.829 2.829-4.949 7.776-7.776 9.899-2.829 4.949-4.949 7.776-4.949 7.776v-38.177c0 2.829 2.829 4.949 4.949 7.776 2.829 2.829 4.949 7.776 7.776 9.899 2.829-4.949 7.776-7.776 9.899-12.725 20.502-25.452 43.126-48.076 67.871-70.7 70.7-62.922 146.348-101.1 221.996-101.1s149.174 38.177 221.996 101.1c25.452 22.624 48.076 48.076 67.871 70.7 4.949 4.949 7.776 7.776 9.899 12.725 2.829-2.829 4.949-7.776 7.776-9.899 2.829-4.949 4.949-7.776 4.949-7.776v38.177c0-2.829-2.829-4.949-4.949-7.776z" p-id="3514" fill="#0da9ee"></path></svg>