<?xml version="1.0" standalone="no"?><!DOCTYPE svg PUBLIC "-//W3C//DTD SVG 1.1//EN" "http://www.w3.org/Graphics/SVG/1.1/DTD/svg11.dtd"><svg t="1499233154004" class="icon" style="" viewBox="0 0 1024 1024" version="1.1" xmlns="http://www.w3.org/2000/svg" p-id="3854" xmlns:xlink="http://www.w3.org/1999/xlink" width="200" height="200"><defs><style type="text/css"></style></defs><path d="M655.746844 928.9728zM301.784178 139.810133z m-137.716622 0c0 77.186844 61.667556 139.787378 137.716622 139.787378 76.071822 0 137.739378-62.577778 137.739378-139.787378C439.523556 62.577778 377.856 0 301.784178 0 225.735111 0 164.067556 62.577778 164.067556 139.810133M722.193067 139.810133z m-137.693867 0a140.174222 140.174222 0 0 0 68.835556 121.0368 135.918933 135.918933 0 0 0 137.739377 0 140.128711 140.128711 0 0 0 68.858311-121.0368 140.151467 140.151467 0 0 0-68.858311-121.059555 136.032711 136.032711 0 0 0-137.739377 0c-42.5984 24.940089-68.835556 71.088356-68.835556 121.059555M907.514311 759.170844l-0.182044 0.091023-129.615645-227.896889h1.4336v-60.438756h196.903822v-110.000355H53.202489v110.000355h196.903822v53.498311L116.576711 759.216356l-0.091022-0.045512L0 963.948089l93.866667 55.000178 28.239644-49.652623 0.091022 0.045512 179.427556-315.460267 147.751822 259.754667-0.4096 0.705422 1.206045 0.705422 30.879288 54.294756L511.977244 1024l30.833778-54.636089 30.879289-54.294755 1.206045-0.705423-0.4096-0.705422 147.751822-259.754667 179.450311 315.460267 0.159289-0.091022 28.285155 49.698133L1024 963.948089l-116.485689-204.777245zM670.765511 524.447289l-158.811022 279.210667-154.897067-272.270223h1.4336v-60.438755H670.742756v53.498311h0.022755z" fill="#1296db" p-id="3855"></path></svg>