<?xml version="1.0" standalone="no"?><!DOCTYPE svg PUBLIC "-//W3C//DTD SVG 1.1//EN" "http://www.w3.org/Graphics/SVG/1.1/DTD/svg11.dtd"><svg t="1501554333435" class="icon" style="" viewBox="0 0 1024 1024" version="1.1" xmlns="http://www.w3.org/2000/svg" p-id="10072" xmlns:xlink="http://www.w3.org/1999/xlink" width="200" height="200"><defs><style type="text/css"></style></defs><path d="M0 526.5c10.9-10.5 20.2-19.2 29.2-28.2 42.2-42 84.2-84.2 126.5-126 5.4-5.3 7.3-10.6 7.3-18-0.3-46.1-0.2-92.2-0.1-138.3 0-12.3 0.7-13 12.6-13h835.9c12.2 0 12.6 0.4 12.6 12.8v592.6c0 12.3-0.4 12.7-12.8 12.7H176.3c-12.9 0-13.4-0.5-13.4-13.2 0-37.6 0.2-75.2-0.3-112.8-0.1-4.8-2.5-10.8-5.9-14.3-48.8-49.2-97.9-98.2-147-147.1-2.6-2.5-5.8-4.3-9.7-7.2z m741.5 79.4c52.3 0 94.1-41.8 94.1-93.9 0-52.1-41.9-93.8-94.1-93.9-52.1 0-94.2 41.9-94.2 93.9 0 52 42.1 93.9 94.2 93.9z m-295.9 0c52.3 0 93.9-41.7 93.9-93.9s-41.8-93.8-94.1-93.8c-52 0.1-94.3 42.2-94.2 93.9 0.1 51.8 42.4 93.8 94.4 93.8z" p-id="10073" fill="#9FA8DA"></path></svg>