<?xml version="1.0" standalone="no"?><!DOCTYPE svg PUBLIC "-//W3C//DTD SVG 1.1//EN" "http://www.w3.org/Graphics/SVG/1.1/DTD/svg11.dtd"><svg t="1501551712472" class="icon" style="" viewBox="0 0 1024 1024" version="1.1" xmlns="http://www.w3.org/2000/svg" p-id="2382" xmlns:xlink="http://www.w3.org/1999/xlink" width="200" height="200"><defs><style type="text/css"></style></defs><path d="M511.072 918.592c-3.808 0-9.472-1.888-13.28-3.808C480.704 907.232 56 691.072 56 366.848c0-144.096 117.568-261.664 261.664-261.664 73.952 0 144.096 32.224 193.408 85.312 49.28-54.976 119.456-85.312 193.408-85.312 144.096 0 261.664 117.568 261.664 261.664 0 324.224-424.704 540.384-441.792 547.968C520.544 916.704 514.848 918.592 511.072 918.592L511.072 918.592zM317.664 163.968c-111.872 0-202.88 91.008-202.88 202.88 0 257.856 326.112 451.264 396.288 489.184 70.144-37.92 396.288-231.328 396.288-489.184 0-111.872-91.008-202.88-202.88-202.88-68.256 0-130.816 34.112-168.736 91.008-11.36 17.056-37.92 17.056-49.28 0C448.48 198.08 385.92 163.968 317.664 163.968L317.664 163.968zM317.664 163.968" p-id="2383" fill="#ffffff"></path></svg>