<?xml version="1.0" standalone="no"?><!DOCTYPE svg PUBLIC "-//W3C//DTD SVG 1.1//EN" "http://www.w3.org/Graphics/SVG/1.1/DTD/svg11.dtd"><svg t="1533173810326" class="icon" style="" viewBox="0 0 1024 1024" version="1.1" xmlns="http://www.w3.org/2000/svg" p-id="2472" xmlns:xlink="http://www.w3.org/1999/xlink" width="40" height="40"><defs><style type="text/css"></style></defs><path d="M980.918297 554.852994 43.079656 554.852994c-23.657816 0-42.856064-19.197224-42.856064-42.8489 0-23.657816 19.198248-42.857087 42.856064-42.857087l937.838641 0c23.697725 0 42.859134 19.199271 42.859134 42.857087C1023.775384 535.655769 1004.616022 554.852994 980.918297 554.852994L980.918297 554.852994z" p-id="2473" fill="#ffffff"></path><path d="M469.147518 980.917786 469.147518 43.079144c0-23.657816 19.197224-42.856064 42.8489-42.856064 23.657816 0 42.856064 19.198248 42.856064 42.856064l0 937.838641c0 23.697725-19.199271 42.859134-42.856064 42.859134C488.344742 1023.774873 469.147518 1004.615511 469.147518 980.917786L469.147518 980.917786z" p-id="2474" fill="#ffffff"></path></svg>