<?xml version="1.0" standalone="no"?><!DOCTYPE svg PUBLIC "-//W3C//DTD SVG 1.1//EN" "http://www.w3.org/Graphics/SVG/1.1/DTD/svg11.dtd"><svg t="1533178929342" class="icon" style="" viewBox="0 0 1024 1024" version="1.1" xmlns="http://www.w3.org/2000/svg" p-id="5849" xmlns:xlink="http://www.w3.org/1999/xlink" width="24" height="24"><defs><style type="text/css"></style></defs><path d="M504.7182218666667 708.6080000000001c101.94488853333334 0 184.47170346666664-82.52681493333333 184.47170453333334-184.47170346666664V218.3016298666667c0-101.94488853333334-82.52681493333333-184.47170346666664-184.47170453333334-184.47170346666664s-184.47170346666664 82.52681493333333-184.47170346666664 184.47170346666664V524.1362965333334c2.427259733333333 101.94488853333334 82.52681493333333 184.47170346666664 184.47170346666664 184.47170346666664z" fill="#8a8a8a" p-id="5850"></path><path d="M791.1348149333332 390.63703680000003c-19.4180736 0-36.40888853333333 16.990814933333333-36.40888853333333 36.408889599999995v99.5176288c0 138.35377813333335-111.6539264 250.00770346666667-250.0077045333333 250.0077045333333s-250.00770346666667-111.6539264-250.00770346666667-250.0077045333333v-109.22666666666667c0-19.4180736-16.990814933333333-36.40888853333333-36.40888853333333-36.40888853333333s-36.40888853333333 16.990814933333333-36.408889599999995 36.40888853333333v109.22666666666667c0 165.05362986666665 126.2174816 303.4074069333333 286.4165930666667 320.39822293333333v77.67229546666667h-121.3629632c-19.4180736 0-36.40888853333333 16.990814933333333-36.40888853333333 36.408889599999995s16.990814933333333 36.40888853333333 36.40888853333333 36.40888853333333h315.54370346666667c19.4180736 0 36.40888853333333-16.990814933333333 36.408889599999995-36.40888853333333s-16.990814933333333-36.40888853333333-36.408889599999995-36.408889599999995h-121.36296213333333v-77.67229546666667c160.19911146666666-16.990814933333333 286.4165930666667-155.34459306666668 286.416592-320.39822293333333V427.0459264c0-21.845333333333333-16.990814933333333-36.40888853333333-36.40888853333333-36.408889599999995z" fill="#8a8a8a" p-id="5851"></path></svg>