<?xml version="1.0" standalone="no"?><!DOCTYPE svg PUBLIC "-//W3C//DTD SVG 1.1//EN" "http://www.w3.org/Graphics/SVG/1.1/DTD/svg11.dtd"><svg t="1533178574087" class="icon" style="" viewBox="0 0 1024 1024" version="1.1" xmlns="http://www.w3.org/2000/svg" p-id="2287" xmlns:xlink="http://www.w3.org/1999/xlink" width="24" height="24"><defs><style type="text/css"></style></defs><path d="M984.00635 953.314949 680.629605 649.938204c58.221843-65.431839 93.669734-151.605586 93.669734-246.073085 0-204.468852-165.76969-370.22349-370.193385-370.22349C199.637101 33.626577 33.867411 199.381214 33.867411 403.865118c0 204.408643 165.754638 370.163281 370.22349 370.163281 94.226665 0 180.204733-35.23716 245.546259-93.203116l303.436954 303.421902c8.323857 8.353961 21.976187 8.173335 30.540879-0.391357C992.164633 975.291136 992.360312 961.653859 984.00635 953.314949zM77.624107 403.865118c0-180.039159 146.442687-326.496898 326.481846-326.496898 179.994003 0 326.43669 146.457739 326.43669 326.496898 0 179.994003-146.442687 326.43669-326.43669 326.43669C224.066794 730.301808 77.624107 583.859121 77.624107 403.865118z" p-id="2288" fill="#8a8a8a"></path></svg>